<svg version="1.2" baseProfile="tiny" viewBox="0 0 10.001 10.911" xmlns:xlink="http://www.w3.org/1999/xlink" xmlns="http://www.w3.org/2000/svg">
<path style="fill:#ffffff;" d="M9.84,5.938L5.46,10.713C5.199,10.977,4.777,10.977,4.541,10.713L0.165,5.938C-0.2,5.551,0.083,4.909,0.623,4.909L2.357,4.909L3.804,6.485C4.094,6.813,4.532,7.008,4.991,7.008C5.432,7.008,5.863,6.826,6.175,6.508L7.645,4.908L9.353,4.908C9.919,4.909,10.201,5.551,9.84,5.938M4.541,5.809C4.659,5.942,4.824,6.008,4.992,6.008C5.16,6.008,5.329,5.942,5.46,5.809L9.84,1.044C10.201,0.6449,9.919,0.0,9.353,0.0L0.623,0.0C0.083,0.0,-0.2,0.646,0.165,1.044L4.541,5.809Z"/>
</svg>