<svg version="1.2" baseProfile="tiny" viewBox="0 0 14.0 10.938" xmlns:xlink="http://www.w3.org/1999/xlink" xmlns="http://www.w3.org/2000/svg">
<path style="fill:#ffffff;" d="M1.864,4.155c-0.179,0-0.331-0.139-0.343-0.321C1.338,1.211,3.411,0.086,3.5,0.04
		c0.168-0.089,0.377-0.024,0.465,0.144C4.053,0.352,3.989,0.56,3.821,0.649C3.741,0.692,2.057,1.626,2.208,3.787
		c0.013,0.19-0.13,0.354-0.32,0.368C1.881,4.155,1.872,4.155,1.864,4.155z M3.069,4.046c0.189-0.02,0.326-0.19,0.306-0.379
		c-0.14-1.317,0.985-1.988,1.039-2.02c0.165-0.094,0.222-0.304,0.129-0.469c-0.094-0.166-0.305-0.224-0.47-0.129
		C4.009,1.085,2.501,1.964,2.69,3.74c0.019,0.177,0.168,0.308,0.342,0.308C3.044,4.048,3.056,4.047,3.069,4.046z M12.479,3.838
		c0.183-2.623-1.89-3.748-1.979-3.795c-0.169-0.089-0.377-0.023-0.465,0.144c-0.089,0.168-0.024,0.377,0.144,0.465
		c0.017,0.009,1.765,0.957,1.613,3.137c-0.013,0.19,0.13,0.354,0.32,0.368c0.008,0.001,0.016,0.001,0.024,0.001
		C12.315,4.158,12.466,4.02,12.479,3.838z M11.31,3.743c0.188-1.776-1.319-2.655-1.383-2.691C9.762,0.958,9.553,1.016,9.459,1.181
		C9.365,1.345,9.422,1.556,9.586,1.65c0.048,0.028,1.18,0.699,1.039,2.02c-0.02,0.189,0.117,0.359,0.306,0.379
		c0.012,0.001,0.025,0.002,0.037,0.002C11.142,4.051,11.292,3.92,11.31,3.743z M11.476,9.164c-0.025,0.261-0.233,0.327-0.486,0.327
		h-0.94H8.839H8.78c-0.149,0.82-0.899,1.447-1.801,1.447c-0.902,0-1.652-0.626-1.801-1.447H5.119H4.671H2.967
		c-0.252,0-0.461-0.066-0.486-0.327c-0.006-0.059-0.125-1.469,1.083-2.33C3.867,6.62,3.909,5.996,3.954,5.336
		c0.005-0.066,0.009-0.18,0.014-0.304l0.001-0.015c0.008-0.201,0.017-0.429,0.028-0.53c0.014-0.257,0.057-0.516,0.132-0.79
		l0.027-0.103c0.01-0.041,0.02-0.083,0.042-0.146C4.218,3.39,4.24,3.332,4.263,3.28c0.026-0.065,0.057-0.132,0.09-0.198l0.017-0.03
		c0.046-0.087,0.089-0.159,0.132-0.22c0.102-0.153,0.226-0.296,0.392-0.451l0.049-0.043c0.112-0.099,0.234-0.19,0.384-0.284
		c0.019-0.012,0.036-0.024,0.054-0.034c0.055-0.031,0.116-0.063,0.193-0.1c0.049-0.023,0.099-0.044,0.149-0.064
		C5.934,1.77,6.16,1.706,6.395,1.666c0.068-0.011,0.139-0.02,0.237-0.031c0.025-0.003,0.05-0.006,0.075-0.008
		c0.075-0.006,0.156-0.01,0.271-0.012C7.094,1.616,7.175,1.62,7.25,1.627c0.025,0.002,0.05,0.005,0.075,0.008
		c0.098,0.011,0.168,0.02,0.237,0.031c0.234,0.04,0.461,0.104,0.674,0.191c0.05,0.02,0.099,0.041,0.148,0.064
		c0.076,0.036,0.137,0.068,0.193,0.1c0.017,0.01,0.035,0.021,0.053,0.033c0.151,0.094,0.273,0.184,0.385,0.284l0.048,0.042
		C9.23,2.536,9.355,2.68,9.457,2.833c0.043,0.061,0.086,0.133,0.132,0.22l0.016,0.029c0.035,0.07,0.065,0.135,0.091,0.2
		C9.717,3.33,9.74,3.388,9.761,3.447c0.02,0.06,0.031,0.101,0.042,0.147L9.83,3.697C9.904,3.971,9.947,4.23,9.962,4.489
		c0.01,0.1,0.019,0.328,0.027,0.529l0.002,0.036c0.005,0.116,0.009,0.22,0.013,0.282c0.045,0.661,0.087,1.284,0.389,1.499
		C11.601,7.696,11.482,9.106,11.476,9.164z M8.259,9.491H5.699c0.144,0.538,0.661,0.94,1.28,0.94
		C7.598,10.431,8.115,10.029,8.259,9.491z M8.711,4.117c-0.155-0.111-0.37-0.075-0.481,0.08L6.358,6.811L5.862,6.185
		C5.744,6.035,5.527,6.01,5.378,6.128C5.229,6.246,5.204,6.463,5.322,6.612l0.779,0.986c0.065,0.083,0.165,0.131,0.27,0.131
		c0.003,0,0.005,0,0.008,0c0.108-0.002,0.209-0.056,0.272-0.144L8.79,4.597C8.901,4.443,8.865,4.228,8.711,4.117z"/>
</svg>